<svg width="41" height="41" viewBox="0 0 41 41" fill="none" xmlns="http://www.w3.org/2000/svg">
<path d="M20.5001 35.875C18.3423 34.0345 16.3423 32.0168 14.5209 29.8429C11.7876 26.5782 8.54175 21.7163 8.54175 17.0833C8.53933 12.2446 11.4532 7.8812 15.9236 6.02938C20.394 4.17756 25.5398 5.20228 28.9597 8.62537C31.2087 10.8643 32.4685 13.9099 32.4585 17.0833C32.4585 21.7163 29.2126 26.5782 26.4792 29.8429C24.6578 32.0168 22.6578 34.0345 20.5001 35.875ZM20.5001 11.9583C18.6691 11.9583 16.9772 12.9351 16.0617 14.5208C15.1462 16.1065 15.1462 18.0601 16.0617 19.6458C16.9772 21.2315 18.6691 22.2083 20.5001 22.2083C23.3305 22.2083 25.6251 19.9138 25.6251 17.0833C25.6251 14.2529 23.3305 11.9583 20.5001 11.9583Z" fill="white"/>
</svg>
