<svg width="40" height="41" viewBox="0 0 40 41" fill="none" xmlns="http://www.w3.org/2000/svg">
<path d="M30.9447 34.1668C17.0477 34.1875 6.50077 22.9935 6.51564 8.54612C6.51564 7.60263 7.24491 6.8335 8.14452 6.8335H12.4437C13.2509 6.8335 13.9367 7.45555 14.0552 8.29297C14.3393 10.3 14.8965 12.254 15.7098 14.0951L15.8772 14.474C16.1099 15.0009 15.9522 15.6269 15.5016 15.9643C14.1702 16.9615 13.6614 18.9687 14.6986 20.5349C16.0002 22.5003 17.6409 24.2207 19.5145 25.5852C21.0078 26.6727 22.9213 26.1392 23.8721 24.7431C24.1941 24.2703 24.7913 24.1047 25.294 24.3489L25.6536 24.5237C27.4092 25.3766 29.2724 25.961 31.1863 26.2589C31.9848 26.3832 32.5776 27.1023 32.5776 27.9489V32.4585C32.5776 33.402 31.8466 34.1668 30.947 34.1668L30.9447 34.1668Z" fill="white"/>
</svg>
